<svg width="16" height="16" viewBox="0 0 22 18" fill="none" xmlns="http://www.w3.org/2000/svg">
<path d="M10.56 0H14.77V11.26C14.77 12.56 14.46 13.69 13.84 14.66C13.22 15.62 12.36 16.36 11.25 16.89C10.14 17.41 8.86 17.67 7.39 17.67C5.92 17.67 4.61 17.41 3.5 16.89C2.39 16.36 1.53 15.62 0.92 14.66C0.31 13.69 0 12.56 0 11.26V0H4.22V10.89C4.22 11.49 4.35 12.03 4.61 12.5C4.88 12.97 5.25 13.34 5.73 13.61C6.21 13.88 6.76 14.01 7.39 14.01C8.02 14.01 8.57 13.88 9.04 13.61C9.52 13.34 9.89 12.97 10.16 12.5C10.43 12.03 10.56 11.49 10.56 10.89V0Z" fill="#D9D9D9"/>
<path d="M18.9402 17.7C18.3302 17.7 17.8002 17.48 17.3602 17.05C16.9302 16.62 16.7202 16.1 16.7202 15.48C16.7202 14.88 16.9302 14.36 17.3602 13.94C17.8002 13.51 18.3202 13.29 18.9402 13.29C19.5202 13.29 20.0302 13.51 20.4702 13.94C20.9202 14.37 21.1502 14.88 21.1502 15.48C21.1502 15.89 21.0402 16.26 20.8302 16.6C20.6302 16.94 20.3602 17.2 20.0202 17.4C19.6902 17.6 19.3302 17.7 18.9402 17.7Z" fill="#D9D9D9"/>
</svg>
