<svg width="26" height="26" viewBox="0 0 26 26" fill="none" xmlns="http://www.w3.org/2000/svg">
<path d="M13 5.86C13.26 5.86 13.51 5.96 13.69 6.15C13.87 6.33 13.98 6.58 13.98 6.84V14.96C13.98 15.22 13.88 15.47 13.69 15.65C13.51 15.83 13.26 15.94 13 15.94C12.74 15.94 12.49 15.84 12.31 15.65C12.13 15.47 12.02 15.22 12.02 14.96V6.84C12.02 6.58 12.12 6.33 12.31 6.15C12.49 5.97 12.74 5.86 13 5.86ZM13 20.15C13.34 20.15 13.68 20.01 13.92 19.77C14.16 19.53 14.3 19.2 14.3 18.85C14.3 18.5 14.16 18.17 13.92 17.93C13.68 17.69 13.35 17.55 13 17.55C12.65 17.55 12.32 17.69 12.08 17.93C11.84 18.17 11.7 18.5 11.7 18.85C11.7 19.2 11.84 19.53 12.08 19.77C12.32 20.01 12.65 20.15 13 20.15ZM13 0.00999975C20.18 0.00999975 26 5.83 26 13.01C26 20.19 20.18 26.01 13 26.01C10.93 26.01 8.88 25.52 7.04 24.56L2.07 25.95C1.79 26.03 1.5 26.03 1.22 25.95C0.939997 25.88 0.69 25.73 0.48 25.53C0.28 25.33 0.129998 25.07 0.0599976 24.79C-0.0100024 24.51 -0.0100024 24.22 0.0599976 23.94L1.45 18.97C0.489997 17.13 0 15.08 0 13C0 5.82 5.82 0 13 0V0.00999975ZM13 1.96C10.07 1.96 7.26 3.12 5.19 5.2C3.12 7.27 1.95 10.08 1.95 13.01C1.95 14.92 2.43 16.76 3.34 18.39L3.54 18.74L2.09 23.92L7.27 22.47L7.62 22.67C9.09 23.49 10.74 23.96 12.42 24.05C14.11 24.14 15.79 23.84 17.34 23.17C18.89 22.51 20.27 21.49 21.37 20.22C22.47 18.94 23.26 17.43 23.69 15.79C24.11 14.16 24.16 12.45 23.82 10.8C23.48 9.15 22.77 7.59 21.74 6.26C20.71 4.93 19.38 3.85 17.87 3.1C16.36 2.36 14.69 1.97 13 1.97V1.96Z" fill="#D9D9D9"/>
</svg>
