<svg width="27" height="24" viewBox="0 0 27 24" fill="none" xmlns="http://www.w3.org/2000/svg">
<path d="M26.41 4.81C26.01 3.86 25.44 3.01 24.7 2.29C23.21 0.820001 21.24 0.0100021 19.13 0.0100021C17.05 0.0100021 15.08 0.810003 13.58 2.28L13.51 2.35L13.44 2.28C11.95 0.810003 9.98 0 7.87 0C5.79 0 3.82 0.800002 2.33 2.26C1.59 2.98 1.02 3.83 0.610001 4.78C0.210001 5.73 0.01 6.74 0 7.77C0 8.8 0.199998 9.81 0.599998 10.76C0.999998 11.71 1.57 12.56 2.3 13.28L12.87 23.72C13.04 23.89 13.26 23.98 13.5 23.98C13.74 23.98 13.96 23.89 14.13 23.72L24.68 13.32C25.42 12.6 25.99 11.76 26.39 10.8C26.79 9.85 26.99 8.85 27 7.81C27 6.78 26.8 5.77 26.4 4.82L26.41 4.81ZM7.88 1.79C9.49 1.79 11.02 2.42 12.17 3.55L12.87 4.25C13.22 4.59 13.78 4.59 14.13 4.25L14.83 3.56C15.99 2.43 17.51 1.81 19.13 1.81C20.75 1.81 22.27 2.44 23.43 3.58C23.99 4.13 24.43 4.78 24.74 5.51C25.05 6.24 25.2 7.01 25.2 7.8C25.2 8.59 25.04 9.36 24.73 10.09C24.42 10.82 23.98 11.47 23.41 12.02L13.49 21.8L3.55 11.98C2.99 11.43 2.55 10.78 2.24 10.05C1.93 9.32 1.78 8.55 1.78 7.76C1.78 6.97 1.94 6.2 2.25 5.47C2.56 4.74 3 4.09 3.56 3.54C4.72 2.41 6.24 1.79 7.85 1.79" fill="#D9D9D9"/>
</svg>
