<svg width="29" height="29" viewBox="0 0 29 29" fill="none" xmlns="http://www.w3.org/2000/svg">
<path d="M28.6025 12.0643L25.7325 7.74426L27.1625 2.72426C27.2525 2.41426 27.1625 2.07426 26.9325 1.84426C26.7025 1.61426 26.3625 1.52426 26.0525 1.61426L21.0625 3.07426L16.7325 0.154257C16.4625 -0.0257434 16.1125 -0.0557434 15.8225 0.104257C15.5325 0.254257 15.3425 0.554257 15.3325 0.874257L15.1825 6.09426L11.0825 9.31426C10.8225 9.51426 10.7025 9.84426 10.7525 10.1643C10.8025 10.4843 11.0225 10.7543 11.3325 10.8643L15.1725 12.2443C15.1725 12.2443 15.1225 12.2843 15.0925 12.3043L0.2625 27.2243C-0.0875 27.5743 -0.0875 28.1443 0.2625 28.4943C0.4325 28.6743 0.6625 28.7543 0.8925 28.7543C1.1225 28.7543 1.3525 28.6643 1.5225 28.4943L16.3625 13.5943C16.4225 13.5343 16.4625 13.4743 16.5025 13.4043L18.0025 17.5443C18.0625 17.6943 18.1525 17.8243 18.2725 17.9343C18.3925 18.0343 18.5425 18.1043 18.7025 18.1243C18.7525 18.1243 18.7925 18.1343 18.8425 18.1343C18.9825 18.1343 19.1125 18.1043 19.2325 18.0443C19.3525 17.9843 19.4625 17.8943 19.5425 17.7843L22.7225 13.6543L27.8625 13.4743C28.1925 13.4643 28.4825 13.2743 28.6325 12.9843C28.7825 12.6943 28.7525 12.3443 28.5725 12.0743L28.6025 12.0643ZM22.2625 11.8643C21.9925 11.8643 21.7525 12.0043 21.5825 12.2143L19.1325 15.3943L17.7625 11.6243C17.6725 11.3743 17.4725 11.1743 17.2225 11.0843L13.4625 9.72426L16.6125 7.25426C16.8225 7.09426 16.9425 6.84426 16.9525 6.57426L17.0725 2.56426L20.3925 4.80426C20.5025 4.87426 20.6225 4.92426 20.7525 4.94426C20.8825 4.96426 21.0125 4.95426 21.1425 4.92426L24.9825 3.79426L23.8825 7.65426C23.8425 7.78426 23.8425 7.91426 23.8625 8.04426C23.8825 8.17426 23.9325 8.29426 24.0025 8.40426L26.2525 11.7243L22.2525 11.8643H22.2625Z" fill="#D9D9D9"/>
</svg>
